<?xml version="1.0" encoding="UTF-8" standalone="no"?>
<svg
   sodipodi:docname="logo.svg"
   inkscape:version="1.1 (c68e22c387, 2021-05-23)"
   id="svg8"
   version="1.1"
   viewBox="0 0 72 58"
   height="58mm"
   width="72mm"
   xmlns:inkscape="http://www.inkscape.org/namespaces/inkscape"
   xmlns:sodipodi="http://sodipodi.sourceforge.net/DTD/sodipodi-0.dtd"
   xmlns="http://www.w3.org/2000/svg"
   xmlns:svg="http://www.w3.org/2000/svg"
   xmlns:rdf="http://www.w3.org/1999/02/22-rdf-syntax-ns#"
   xmlns:cc="http://creativecommons.org/ns#"
   xmlns:dc="http://purl.org/dc/elements/1.1/">
  <defs
     id="defs2">
    <rect
       x="110.55804"
       y="131.53571"
       width="33.072918"
       height="17.764881"
       id="rect20" />
  </defs>
  <sodipodi:namedview
     inkscape:window-maximized="0"
     inkscape:window-y="0"
     inkscape:window-x="70"
     inkscape:window-height="728"
     inkscape:window-width="1274"
     showgrid="false"
     inkscape:document-rotation="0"
     inkscape:current-layer="layer1"
     inkscape:document-units="mm"
     inkscape:cy="125.25891"
     inkscape:cx="247.99245"
     inkscape:zoom="0.9899495"
     inkscape:pageshadow="2"
     inkscape:pageopacity="0.0"
     borderopacity="1.0"
     bordercolor="#666666"
     pagecolor="#ffffff"
     id="base"
     inkscape:pagecheckerboard="0" />
  <metadata
     id="metadata5">
    <rdf:RDF>
      <cc:Work
         rdf:about="">
        <dc:format>image/svg+xml</dc:format>
        <dc:type
           rdf:resource="http://purl.org/dc/dcmitype/StillImage" />
        <dc:title />
      </cc:Work>
    </rdf:RDF>
  </metadata>
  <g
     id="layer1"
     inkscape:groupmode="layer"
     inkscape:label="Layer 1">
    <path
       d=""
       id="path42"
       style="fill:#000000;stroke-width:0.264583" />
    <path
       d=""
       id="path40"
       style="fill:#000000;stroke-width:0.264583" />
    <path
       id="path78"
       d="M 29.840211,48.440775 C 27.937305,47.832909 25.359322,46.515 24.111365,45.512123 22.863407,44.509235 20.640431,43.173478 19.171407,42.543787 15.728491,41.067997 7.1750559,32.357945 2.7281789,25.799483 1.5535859,24.067148 1.3310533,23.312452 1.8207916,22.722345 2.8141321,21.525436 6.9265928,23.83802 8.0278415,26.212775 L 8.9005744,28.094719 8.5655758,26.060013 C 8.3813317,24.940925 7.6706168,23.429245 6.9862039,22.700721 5.6414714,21.269303 5.8326023,19.7594 7.4364491,19.143934 c 1.8422305,-0.70692 2.7213679,1.468944 2.3729779,5.873156 -0.3020207,3.81817 -0.2362357,4.08657 1.480459,6.041789 1.697771,1.933635 4.03216,2.76564 4.03216,1.437081 0,-0.334979 -0.663131,-1.917644 -1.473602,-3.517063 -1.678266,-3.311908 -1.891693,-5.992549 -0.5648,-7.093757 0.752176,-0.62426 1.18653,-0.548938 2.520219,0.437094 l 1.611376,1.191378 0.972691,-2.277628 c 0.534963,-1.252686 1.248288,-2.277619 1.585154,-2.277619 1.273998,0 1.96571,2.529234 1.595133,5.832508 -0.584636,5.211581 0.834766,9.543171 4.849116,14.798 2.176376,2.848893 3.788003,4.420816 4.532469,4.420816 1.964977,0 1.714195,-1.971522 -0.509947,-4.008749 -2.311249,-2.117026 -3.537974,-4.719373 -3.009515,-6.384357 0.778066,-2.451462 2.420342,-0.558926 4.706353,5.423423 1.720719,4.503095 2.824578,5.272778 7.527608,5.248715 3.029192,-0.01556 3.048547,-0.027 1.57634,-0.94154 -1.854548,-1.151955 -3.768266,-4.028575 -5.350389,-8.042484 -1.597542,-4.053021 -1.909642,-4.376655 -6.154436,-6.382229 -4.067948,-1.92202 -5.882542,-3.589383 -5.367385,-4.931887 0.525407,-1.369217 1.329223,-1.114781 3.945574,1.248931 1.698062,1.534087 2.567562,1.972847 3.017667,1.522723 0.450125,-0.450105 0.06063,-1.205252 -1.352131,-2.620769 -1.214357,-1.216787 -2.273302,-3.079949 -2.728757,-4.80111 C 26.591438,16.848708 26.213483,16.398081 23.939358,15.392122 20.780152,13.994645 20.528035,13.690757 18.62269,8.9835616 16.864233,4.6392343 16.694987,2.7318322 18.022744,2.2223075 c 1.748518,-0.6709807 2.67006,-0.3585297 4.342101,1.4721151 1.551785,1.6989851 1.714927,1.7520401 2.280349,0.7417047 0.334928,-0.5985097 0.743602,-0.9535554 0.90817,-0.7889774 0.164638,0.1646277 0.865144,3.7372236 1.556905,7.9392601 0.691742,4.202058 1.537861,7.977623 1.880238,8.390202 0.342388,0.412549 0.424948,0.750078 0.183572,0.750078 -0.241476,0 -0.163966,0.331575 0.172428,0.736816 0.336334,0.40523 0.634058,0.935737 0.661615,1.178889 0.07128,0.628015 0.234188,0.675458 1.207079,0.351151 0.669836,-0.223275 0.89529,-1.65903 1.010497,-6.434762 0.12141,-5.03332 -0.0769,-6.7676127 -1.093971,-9.5701442 -0.850758,-2.3441245 -1.051285,-3.6137559 -0.636286,-4.0287436 0.415018,-0.4150287 0.923851,0.2921317 1.614608,2.2438968 1.77737,5.022093 2.03288,5.502355 2.927016,5.502355 0.482882,0 1.2615,-0.7294167 1.730257,-1.6209424 l 0.852294,-1.6209921 0.395392,1.5654671 c 0.261142,1.0339764 0.06084,2.0760364 -0.590037,3.0693964 -0.891706,1.360875 -0.916743,2.249289 -0.263371,9.339251 0.39715,4.309404 0.917657,8.0542 1.156704,8.321787 0.552873,0.618839 3.86735,-7.363894 4.389153,-10.571056 0.248112,-1.525121 0.0528,-3.739053 -0.527886,-5.979507 -1.959425,-7.5616283 -0.366541,-13.25602724 3.177516,-11.3593162 1.271198,0.6803367 1.843426,3.8787119 1.887186,10.5476292 0.0254,3.878454 -0.243173,5.310766 -1.518145,8.095691 -0.851982,1.860963 -2.041865,3.728743 -2.644179,4.150629 -0.728825,0.510478 -1.230861,1.853514 -1.500968,4.015183 -0.223206,1.786485 -0.670208,3.411564 -0.993361,3.611288 -0.323142,0.199624 -0.503532,1.33121 -0.400824,2.514427 0.160623,1.850061 10e-4,2.177671 -1.139527,2.339659 -0.729437,0.103521 -1.326271,0.432346 -1.326271,0.730561 0,0.845598 5.984899,7.281174 7.228249,7.772558 1.902283,0.751795 0.933669,2.396911 -1.893199,3.215374 -2.430662,0.703738 -2.712213,0.666905 -3.97548,-0.519865 l -1.35957,-1.277231 v 1.281648 c 0,1.093649 -0.324166,1.27697 -2.210387,1.249915 -1.215743,-0.01787 -3.767353,-0.529051 -5.670259,-1.136927 z m 13.18567,-7.083577 c -0.37673,-0.703919 -0.552341,-1.412465 -0.390252,-1.574574 0.162188,-0.162178 0.602957,0.28121 0.979687,0.985129 0.37672,0.703918 0.552341,1.412475 0.390243,1.574573 -0.162179,0.162179 -0.602957,-0.28122 -0.979678,-0.985128 z m 3.912938,0.294732 c -0.186694,-0.486295 -0.08242,-0.884177 0.231648,-0.884177 0.314027,0 0.570943,0.397882 0.570943,0.884177 0,1.132128 -0.368147,1.132128 -0.802591,0 z m 5.564679,-4.076993 c -0.0256,-0.621359 0.113621,-0.969498 0.30958,-0.773639 0.195819,0.195829 0.216761,0.70426 0.04658,1.129779 -0.18825,0.470193 -0.327821,0.330541 -0.35612,-0.35614 z m -6.518527,-9.706535 c -0.02229,-1.519771 1.365543,-5.662398 2.244219,-6.699629 1.124067,-1.326913 4.227768,-1.397055 4.227768,-0.09557 0,0.514805 -1.453514,2.437859 -3.23006,4.273464 -1.776537,1.835616 -3.235391,2.970354 -3.241927,2.521695 z"
       style="fill:#aecbd6;fill-opacity:1;stroke-width:0.589442" />
    <text
       xml:space="preserve"
       id="text18"
       style="font-style:normal;font-variant:normal;font-weight:normal;font-stretch:normal;font-size:10.5833px;line-height:1.25;font-family:'Poiret One';-inkscape-font-specification:'Poiret One';white-space:pre;shape-inside:url(#rect20);fill:#000000;fill-opacity:1;stroke:none" />
  </g>
  <g
     inkscape:label="Layer 2"
     id="layer2"
     inkscape:groupmode="layer">
    <path
       id="path62"
       d="m 46.58584,56.580295 c -0.324196,-0.106673 -1.521527,-0.348631 -2.660743,-0.537614 -1.610603,-0.267175 -2.603301,-1.031749 -4.463301,-3.437564 -3.390382,-4.385369 -3.715462,-5.098583 -1.464005,-3.212061 1.590676,1.332857 2.322473,1.575969 3.80513,1.26415 2.335422,-0.491194 2.615478,-0.77155 3.077218,-3.080179 0.28636,-1.43177 0.171986,-1.897254 -0.466639,-1.897254 -1.251079,0 -7.738898,-7.713118 -7.059394,-8.392632 0.826052,-0.826052 3.042574,0.555644 3.042574,1.896612 0,1.409845 2.901015,4.879915 2.928592,3.503058 0.01114,-0.511442 -0.644508,-2.56185 -1.45498,-4.556471 -2.10783,-5.187378 -1.844008,-12.528614 0.466207,-12.973518 1.691627,-0.325783 2.394592,2.578936 1.569765,6.486312 -0.813554,3.853888 -0.414858,6.773335 1.389937,10.177841 l 1.264462,2.385186 0.537533,-5.280479 c 0.373137,-3.665658 0.337619,-5.810071 -0.11607,-7.012321 -0.778869,-2.063428 -0.294009,-3.226657 0.749877,-1.799053 1.015597,1.388914 1.944437,0.633546 2.708047,-2.202216 0.354313,-1.315821 0.785816,-2.250765 0.958917,-2.077664 0.173101,0.173101 -0.002,1.276518 -0.390644,2.452035 -0.672246,2.036955 -0.604674,12.86058 0.08463,13.549832 0.166194,0.166194 0.924142,-0.359916 1.684339,-1.169112 0.760216,-0.809207 1.73384,-1.471293 2.163606,-1.471293 1.297018,0 0.879098,1.568771 -0.692173,2.598281 -0.810481,0.531069 -1.473612,0.808765 -1.473612,0.617112 0,-0.191592 -0.812288,0.229952 -1.805087,0.936882 -1.002295,0.713696 -2.409098,2.651106 -3.163191,4.356226 -0.746945,1.688986 -2.09243,3.648542 -2.989929,4.354508 l -1.631856,1.283616 h 1.809434 c 3.203176,0 4.567244,-0.901324 5.648404,-3.732247 0.558445,-1.462318 1.399294,-2.977371 1.868513,-3.36681 1.574463,-1.306685 0.989907,2.049544 -0.620445,3.562408 -1.424823,1.338539 -2.016978,3.536649 -0.952773,3.536649 0.908732,0 4.863552,-4.761587 5.783458,-6.963281 0.486626,-1.164655 0.925035,-3.699681 0.974246,-5.633436 0.09135,-3.592526 1.305189,-5.315956 1.965519,-2.790888 0.370104,1.415255 0.825048,1.546062 1.841689,0.529442 0.555744,-0.555754 0.929282,-0.493774 1.706193,0.283107 0.933258,0.933248 0.932987,1.123977 -0.004,3.089305 -1.703232,3.571755 -1.089915,5.024355 1.099783,2.604767 0.60639,-0.670028 1.136545,-1.929971 1.178156,-2.799863 0.04166,-0.869882 0.117185,-2.443672 0.167761,-3.497307 0.09667,-2.010593 0.4205,-2.249178 1.83699,-1.353195 0.742508,0.469651 0.72228,0.697393 -0.147261,1.658338 -0.554459,0.612675 -0.977318,1.623553 -0.939712,2.246408 0.0526,0.871759 0.126761,0.913912 0.322118,0.18312 0.241095,-0.902097 2.536161,-2.292527 3.784058,-2.292527 0.7998,0 -0.217884,1.792167 -3.374058,5.942384 -2.653927,3.489667 -6.462671,7.025352 -7.567935,7.025352 -0.332409,0 -1.90393,0.923941 -3.492277,2.053198 -1.588347,1.129278 -3.842113,2.21342 -5.008373,2.409249 -1.166281,0.195829 -2.518372,0.441913 -3.004657,0.54687 -0.486315,0.104967 -1.149415,0.103662 -1.473612,-0.003 z m 5.917729,-19.005358 c 0.718605,-1.66898 2.014147,-7.959091 2.027469,-9.843727 0.009,-1.34675 0.170872,-1.580275 0.715483,-1.035644 0.544631,0.544661 1.003068,0.421504 2.03306,-0.546127 1.405569,-1.320468 3.158172,-1.15062 3.158172,0.306067 0,2.138338 -2.370368,6.232759 -4.137297,7.146461 -1.060822,0.548576 -2.210749,1.820045 -2.695659,2.980593 -0.465103,1.113135 -1.003078,2.023895 -1.195514,2.023895 -0.192486,0 -0.149931,-0.464189 0.09427,-1.031518 z"
       style="fill:#ffd1dc;fill-opacity:1;stroke-width:0.589442" />
  </g>
</svg>
