<?xml version="1.0" encoding="UTF-8" standalone="no"?>
<!-- Created with Inkscape (http://www.inkscape.org/) -->

<svg
   width="147.65662mm"
   height="56.561424mm"
   viewBox="0 0 147.65662 56.561424"
   version="1.1"
   id="svg5"
   inkscape:version="1.1 (c68e22c387, 2021-05-23)"
   sodipodi:docname="logo-home.svg"
   inkscape:export-filename="F:\E\coral\coral\lib\home-logo.png"
   inkscape:export-xdpi="254.63927"
   inkscape:export-ydpi="254.63927"
   xmlns:inkscape="http://www.inkscape.org/namespaces/inkscape"
   xmlns:sodipodi="http://sodipodi.sourceforge.net/DTD/sodipodi-0.dtd"
   xmlns="http://www.w3.org/2000/svg"
   xmlns:svg="http://www.w3.org/2000/svg">
  <sodipodi:namedview
     id="namedview7"
     pagecolor="#ffffff"
     bordercolor="#666666"
     borderopacity="1.0"
     inkscape:pageshadow="2"
     inkscape:pageopacity="0.0"
     inkscape:pagecheckerboard="0"
     inkscape:document-units="mm"
     showgrid="false"
     inkscape:zoom="1.4289282"
     inkscape:cx="179.50517"
     inkscape:cy="101.12475"
     inkscape:window-width="1366"
     inkscape:window-height="705"
     inkscape:window-x="-8"
     inkscape:window-y="-8"
     inkscape:window-maximized="1"
     inkscape:current-layer="layer1" />
  <defs
     id="defs2" />
  <g
     inkscape:label="Layer 1"
     inkscape:groupmode="layer"
     id="layer1"
     transform="translate(-10.640992,-98.819703)">
    <text
       xml:space="preserve"
       style="font-style:normal;font-weight:normal;font-size:6.79827px;line-height:1.25;font-family:sans-serif;fill:#000000;fill-opacity:1;stroke:none;stroke-width:0.161863"
       x="80.798531"
       y="141.42659"
       id="text889"><tspan
         sodipodi:role="line"
         id="tspan887"
         style="font-style:normal;font-variant:normal;font-weight:normal;font-stretch:normal;font-size:6.79827px;font-family:Poppins;-inkscape-font-specification:Poppins;fill:#000000;stroke-width:0.161863"
         x="80.798531"
         y="141.42659">always there for you</tspan></text>
    <text
       xml:space="preserve"
       style="font-style:normal;font-weight:normal;font-size:32.3727px;line-height:1.25;font-family:sans-serif;fill:#000000;fill-opacity:1;stroke:none;stroke-width:0.161863"
       x="79.276665"
       y="131.01379"
       id="text6899"><tspan
         sodipodi:role="line"
         id="tspan6897"
         style="font-style:normal;font-variant:normal;font-weight:normal;font-stretch:normal;font-size:32.3727px;font-family:'Poiret One';-inkscape-font-specification:'Poiret One';fill:#000000;stroke-width:0.161863"
         x="79.276665"
         y="131.01379">coral</tspan></text>
    <path
       style="fill:#ffd1dc;fill-opacity:1;stroke-width:0.437556"
       d="m 54.017906,149.56055 c -0.842296,-0.28724 -1.491307,-0.71915 -1.442248,-0.95981 0.04906,-0.24066 -0.470373,-1.02826 -1.154293,-1.75022 -0.683921,-0.72197 -1.585863,-1.99112 -2.004313,-2.82033 l -0.76082,-1.50765 1.40174,1.17949 c 0.770956,0.64872 1.888661,1.17949 2.483788,1.17949 1.347725,0 3.477533,-1.07093 3.799753,-1.91062 0.402433,-1.04872 -0.187611,-2.46494 -1.026973,-2.46494 -1.094998,0 -5.23464,-4.74044 -5.23464,-5.99436 0,-1.9174 1.903719,-0.67062 2.395606,1.56892 0.30111,1.37094 1.745093,2.97166 2.12548,2.35618 0.127821,-0.20682 -0.149597,-1.22926 -0.616485,-2.27208 -1.040919,-2.32497 -1.233224,-3.37211 -1.468603,-7.99685 -0.145624,-2.86123 -0.04054,-3.79223 0.494857,-4.38426 1.787766,-1.97687 3.396552,2.65997 2.315645,6.67415 -0.561338,2.08466 -0.02163,5.21245 1.356353,7.86051 l 0.796926,1.53144 0.0558,-1.53144 c 0.03069,-0.8423 0.117221,-2.0237 0.192292,-2.62533 0.392115,-3.14258 0.329598,-5.26205 -0.192381,-6.52222 -0.453523,-1.0949 -0.465136,-1.51709 -0.05296,-1.92509 0.409914,-0.40573 0.627621,-0.34595 0.973601,0.26739 0.608742,1.07915 1.510653,0.2907 1.872238,-1.63672 0.151871,-0.80954 0.543274,-1.6936 0.869785,-1.96458 0.950059,-0.78848 1.226821,0.64686 0.47273,2.45165 -0.733236,1.75488 -0.918885,8.89201 -0.231297,8.89201 0.433004,0 1.211922,-2.42582 1.492865,-4.6493 0.843312,-6.67424 0.754065,-6.37386 1.814683,-6.10767 0.653516,0.16402 1.079444,0.0257 1.244307,-0.40383 0.338857,-0.88305 2.850784,-0.86208 3.191819,0.0266 0.233279,0.60791 -0.338661,2.36799 -1.744589,5.36876 -0.261999,0.5592 -1.112878,1.28268 -1.890844,1.60774 -1.084169,0.45299 -1.522251,0.99123 -1.875971,2.30484 -0.253819,0.94261 -0.856119,2.07097 -1.338446,2.50748 -0.482327,0.43649 -0.876958,0.99685 -0.876958,1.24524 0,0.24838 0.55225,-0.0775 1.227222,-0.72415 1.271993,-1.21866 2.044587,-1.46214 2.467602,-0.77769 0.534839,0.86538 -0.421766,1.90131 -2.676561,2.89848 -2.143959,0.94816 -2.468001,1.28167 -3.476727,3.57826 -0.611823,1.39295 -1.591515,3.0385 -2.177095,3.65675 l -1.06469,1.1241 1.865623,-0.24899 c 1.802862,-0.24061 1.917142,-0.35203 3.397069,-3.31188 0.842296,-1.68459 1.728348,-3.06289 1.969004,-3.06289 0.240655,0 0.495859,0.59438 0.567121,1.32086 0.09816,1.00072 -0.193488,1.63037 -1.20328,2.59781 -1.399985,1.34127 -1.734971,2.42589 -0.749239,2.42589 0.489361,0 2.620861,-2.76237 4.051527,-5.25067 0.20755,-0.36099 0.480179,-2.32999 0.605842,-4.37557 0.210343,-3.42402 0.305394,-3.73016 1.197513,-3.85702 0.7348,-0.10448 1.038355,0.13839 1.255805,1.00478 0.270925,1.07945 0.331316,1.10227 1.093059,0.4129 2.017593,-1.8259 2.881874,1.04266 1.267548,4.207 -1.014464,1.98852 -0.623988,2.24483 0.917122,0.60201 0.859041,-0.91574 1.060774,-1.59196 1.060774,-3.55581 0,-1.82139 0.18856,-2.54554 0.757513,-2.9092 0.589177,-0.37657 0.924022,-0.31765 1.506801,0.26513 0.707348,0.70734 0.689439,0.81696 -0.319956,1.95845 -0.701126,0.79288 -0.767962,0.96444 -0.194134,0.49833 2.206314,-1.79215 3.980845,-1.18812 2.829526,0.96313 -0.95304,1.78078 -7.072757,8.05286 -8.938875,9.16143 -1.012772,0.60163 -2.523351,1.61517 -3.356844,2.25229 -2.673103,2.04333 -7.810489,2.74766 -11.317725,1.55163 z"
       id="path10407" />
    <path
       style="fill:#aecbd6;fill-opacity:1;stroke-width:0.42465"
       d="m 46.461398,144.08358 c -3.607521,-0.34359 -7.305465,-1.82853 -9.648976,-3.87461 -0.765555,-0.66839 -2.34738,-1.69865 -3.515168,-2.28946 -2.211464,-1.11883 -10.312008,-9.03602 -12.875742,-12.5843 -1.602138,-2.21741 -1.830502,-4.28895 -0.47281,-4.28895 1.071489,0 2.39885,0.65841 3.745402,1.85783 1.009989,0.89962 1.011687,0.89968 0.553996,0.0182 -0.252504,-0.48633 -0.756169,-1.13078 -1.119257,-1.43211 -1.446821,-1.20075 0.04228,-3.59743 1.92866,-3.10414 1.302514,0.34062 1.592115,1.34696 1.429885,4.96879 l -0.150425,3.35825 1.740955,1.73159 c 2.096747,2.08547 2.486096,1.53298 0.99431,-1.41092 -1.20721,-2.3823 -1.511982,-5.17134 -0.67527,-6.17952 0.731684,-0.88162 1.383822,-0.82799 2.720932,0.22378 1.062981,0.83615 1.132564,0.84156 1.365765,0.10616 0.666927,-2.10311 1.069648,-2.68578 1.856331,-2.68578 1.594821,0 2.216086,1.69807 1.899493,5.1918 -0.35965,3.96888 0.41919,6.8681 2.804694,10.44042 2.549573,3.81802 4.201434,5.48451 4.682604,4.72408 0.607384,-0.95988 0.516033,-1.15838 -1.549321,-3.36641 -2.006321,-2.14491 -2.811078,-4.60223 -1.933765,-5.90471 0.960007,-1.42525 2.948955,0.98597 4.16684,5.05151 0.952287,3.17892 2.16232,4.2465 4.813121,4.2465 h 2.077919 l -1.464938,-1.59243 c -0.805717,-0.87585 -1.977263,-2.93009 -2.603437,-4.56499 -1.468168,-3.8333 -2.188453,-4.59825 -5.599755,-5.94697 -3.146326,-1.24395 -3.877364,-1.94195 -3.877364,-3.70214 0,-1.95179 1.113283,-1.93863 3.12627,0.037 2.25167,2.20984 3.578633,2.35771 1.432229,0.15959 -0.857428,-0.87808 -1.772525,-2.26351 -2.033547,-3.07871 -1.077082,-3.36385 -1.346301,-3.78335 -2.718707,-4.23629 -0.758975,-0.25048 -1.822573,-0.92656 -2.363551,-1.50241 -1.0654,-1.13407 -3.383696,-6.66553 -3.38623,-8.07956 -0.0041,-2.24863 3.107457,-2.64712 4.815876,-0.61679 1.016128,1.20761 1.085293,1.22816 1.347979,0.4005 0.162411,-0.51171 0.567601,-0.81643 0.980014,-0.737 0.556874,0.10724 0.900337,1.36249 1.651304,6.03502 1.087293,6.76513 2.127956,10.72626 2.673781,10.17734 0.205139,-0.20631 0.411344,-2.76715 0.458233,-5.69077 0.06455,-4.02471 -0.07,-5.62322 -0.554029,-6.58207 -0.929421,-1.84117 -1.203364,-3.30756 -0.752893,-4.03016 0.692523,-1.11086 1.860995,0.11761 2.466312,2.59299 0.308533,1.26171 0.925978,2.66728 1.372099,3.12351 0.802831,0.821 0.816051,0.81537 1.292062,-0.55012 0.557175,-1.5983 1.270223,-1.55675 1.858619,0.10833 0.316391,0.89534 0.242127,1.46463 -0.318487,2.44145 -0.843045,1.46891 -0.877014,3.61323 -0.160358,10.12266 l 0.490894,4.45883 1.399962,-3.32864 c 2.071,-4.92414 2.287867,-6.63326 1.321246,-10.4127 -1.193414,-4.66621 -0.952025,-8.50853 0.596395,-9.49309 0.961738,-0.61152 2.800772,-0.35076 3.233903,0.45855 0.600106,1.12131 1.430279,8.41428 1.19521,10.4998 -0.287867,2.55396 -2.512469,7.80569 -3.309126,7.81202 -1.296595,0.0104 -1.677111,0.99843 -1.710891,4.44282 -0.01844,1.88014 -0.130306,3.17838 -0.248595,2.88498 -0.451834,-1.12073 -0.910322,-0.026 -0.535895,1.27952 0.544239,1.89764 0.501699,2.09976 -0.349772,1.66183 -0.921122,-0.47375 -1.804762,-0.19179 -1.804762,0.57588 0,0.95809 4.645103,6.12348 5.757839,6.40275 1.381323,0.3467 1.437622,2.07034 0.0811,2.48281 -3.429308,1.04272 -3.705344,1.03635 -5.076226,-0.11716 l -1.328102,-1.11753 0.278623,1.11013 c 0.311074,1.23941 -0.230414,1.52692 -2.473454,1.31327 z m 6.862569,-6.8253 c -0.775539,-0.85696 -0.976867,-2.41664 -0.254303,-1.97006 0.491522,0.30377 1.367799,2.34089 1.115483,2.5932 -0.08582,0.0858 -0.47335,-0.19459 -0.86118,-0.62314 z m 2.89422,-0.10733 c -0.318211,-1.0026 -0.04823,-1.45938 0.61888,-1.04709 0.556966,0.34423 0.603684,1.92839 0.05687,1.92839 -0.217819,0 -0.521906,-0.39658 -0.675748,-0.8813 z m 4.704311,-2.90332 c -0.198838,-0.32173 -0.0555,-0.8237 0.351397,-1.2306 0.728459,-0.72846 0.834757,-0.39744 0.305979,0.95286 -0.239768,0.61227 -0.406965,0.68291 -0.657376,0.27774 z m -5.43996,-8.61796 c -0.115848,-0.7692 -0.04321,-1.46224 0.161423,-1.54009 0.204632,-0.0779 0.372058,-0.5261 0.372058,-0.99611 0,-1.32655 1.327911,-3.25689 2.528335,-3.67536 1.361674,-0.47468 2.992113,0.0962 2.992113,1.04759 0,0.59874 -4.706772,6.03336 -5.575709,6.43791 -0.147173,0.0685 -0.362372,-0.50475 -0.47822,-1.27394 z"
       id="path10519" />
  </g>
</svg>
